<svg width="683" height="685" viewBox="0 0 683 685" fill="none" xmlns="http://www.w3.org/2000/svg">
<rect y="205" width="576" height="480" rx="240" fill="url(#paint0_radial_90_2)"/>
<path d="M581.034 456.708C599.719 444.875 615.023 429.247 625.698 411.099C692.461 298.869 677.382 133.379 548.808 62.3979C489.381 29.5955 403.848 8.83464 339.608 42.5174C287.515 69.8492 255.582 121.296 229.162 168.099C212.565 197.538 198.887 229.219 178.424 256.76C151.887 292.476 122.675 340.181 152.167 381.682C192.358 438.211 268.267 464.023 337.097 481.022C411.779 499.456 495.758 502.065 564.74 466.108C570.323 463.195 575.754 460.062 581.034 456.708Z" fill="#059669" fill-opacity="0.1"/>
<path opacity="0.7" d="M581.034 456.708C599.719 444.875 615.023 429.247 625.698 411.099C692.461 298.869 677.382 133.379 548.808 62.3979C489.381 29.5955 403.848 8.83464 339.608 42.5174C287.515 69.8492 255.582 121.296 229.162 168.099C212.565 197.538 198.887 229.219 178.424 256.76C151.887 292.476 122.675 340.181 152.167 381.682C192.358 438.211 268.267 464.023 337.097 481.022C411.779 499.456 495.758 502.065 564.74 466.108C570.323 463.195 575.754 460.062 581.034 456.708Z" fill="#62B5E5" fill-opacity="0.1"/>
<defs>
<radialGradient id="paint0_radial_90_2" cx="0" cy="0" r="1" gradientUnits="userSpaceOnUse" gradientTransform="translate(288 445) rotate(39.8056) scale(374.892 368.746)">
<stop stop-color="#059669" stop-opacity="0.3"/>
<stop offset="1" stop-color="#0284C7" stop-opacity="0.05"/>
</radialGradient>
</defs>
</svg>
