<svg width="326" height="183" viewBox="0 0 326 183" fill="none" xmlns="http://www.w3.org/2000/svg">
<rect width="326" height="183" fill="#121214"/>
<path d="M162.69 83.5909H148.838C148.671 83.5931 148.506 83.5618 148.351 83.4988C148.197 83.4359 148.056 83.3425 147.938 83.2242C147.82 83.106 147.727 82.9652 147.664 82.8103C147.602 82.6554 147.57 82.4894 147.573 82.3222V68.4318C147.573 64.4114 149.165 60.5556 152 57.7127C154.835 54.8698 158.68 53.2727 162.69 53.2727C164.675 53.2727 166.641 53.6648 168.475 54.4266C170.309 55.1884 171.975 56.305 173.379 57.7127C174.783 59.1204 175.896 60.7915 176.656 62.6307C177.416 64.4699 177.807 66.4411 177.807 68.4318C177.807 70.4225 177.416 72.3938 176.656 74.2329C175.896 76.0721 174.783 77.7433 173.379 79.1509C171.975 80.5586 170.309 81.6752 168.475 82.437C166.641 83.1988 164.675 83.5909 162.69 83.5909Z" stroke="#00B37E" stroke-width="2" stroke-linecap="round" stroke-linejoin="round"/>
<path d="M157.431 66.4545H167.29" stroke="#996DFF" stroke-width="2" stroke-linecap="round" stroke-linejoin="round"/>
<path d="M157.431 71.7273H167.29" stroke="#996DFF" stroke-width="2" stroke-linecap="round" stroke-linejoin="round"/>
<path d="M84 103.418H91.425C93.1092 103.418 94.5315 103.675 95.692 104.19C96.8627 104.705 97.7511 105.467 98.357 106.476C98.9732 107.475 99.2812 108.706 99.2812 110.168C99.2812 111.198 99.0707 112.14 98.6497 112.995C98.2389 113.84 97.6432 114.56 96.8627 115.158C96.0925 115.745 95.1683 116.182 94.0899 116.471L93.2581 116.795H86.2799L86.2491 114.37H91.5174C92.5854 114.37 93.4738 114.185 94.1824 113.814C94.891 113.433 95.425 112.923 95.7844 112.285C96.1439 111.646 96.3236 110.941 96.3236 110.168C96.3236 109.303 96.1541 108.546 95.8152 107.897C95.4763 107.249 94.9423 106.749 94.2132 106.399C93.4943 106.039 92.5649 105.858 91.425 105.858H86.9731V125.909H84V103.418ZM97.1092 125.909L91.656 115.714L94.7523 115.698L100.282 125.724V125.909H97.1092Z" fill="#996DFF"/>
<path d="M102.254 117.737V117.382C102.254 116.177 102.429 115.06 102.778 114.03C103.127 112.99 103.63 112.089 104.288 111.327C104.945 110.554 105.741 109.957 106.675 109.535C107.61 109.102 108.657 108.886 109.818 108.886C110.989 108.886 112.041 109.102 112.976 109.535C113.921 109.957 114.722 110.554 115.379 111.327C116.047 112.089 116.555 112.99 116.904 114.03C117.253 115.06 117.428 116.177 117.428 117.382V117.737C117.428 118.942 117.253 120.06 116.904 121.089C116.555 122.119 116.047 123.02 115.379 123.793C114.722 124.555 113.926 125.152 112.991 125.585C112.067 126.007 111.02 126.218 109.849 126.218C108.678 126.218 107.625 126.007 106.691 125.585C105.756 125.152 104.955 124.555 104.288 123.793C103.63 123.02 103.127 122.119 102.778 121.089C102.429 120.06 102.254 118.942 102.254 117.737ZM105.104 117.382V117.737C105.104 118.572 105.202 119.359 105.397 120.101C105.592 120.832 105.885 121.481 106.275 122.047C106.675 122.614 107.174 123.062 107.769 123.391C108.365 123.71 109.058 123.87 109.849 123.87C110.629 123.87 111.312 123.71 111.898 123.391C112.493 123.062 112.986 122.614 113.376 122.047C113.767 121.481 114.059 120.832 114.254 120.101C114.46 119.359 114.563 118.572 114.563 117.737V117.382C114.563 116.558 114.46 115.781 114.254 115.049C114.059 114.308 113.762 113.654 113.361 113.088C112.971 112.511 112.478 112.058 111.882 111.728C111.297 111.399 110.609 111.234 109.818 111.234C109.037 111.234 108.349 111.399 107.754 111.728C107.168 112.058 106.675 112.511 106.275 113.088C105.885 113.654 105.592 114.308 105.397 115.049C105.202 115.781 105.104 116.558 105.104 117.382Z" fill="#996DFF"/>
<path d="M127.672 123.87C128.35 123.87 128.976 123.731 129.551 123.453C130.126 123.175 130.599 122.794 130.968 122.31C131.338 121.815 131.549 121.254 131.6 120.626H134.311C134.26 121.615 133.926 122.536 133.31 123.391C132.704 124.236 131.908 124.92 130.922 125.446C129.936 125.961 128.853 126.218 127.672 126.218C126.419 126.218 125.325 125.997 124.391 125.554C123.466 125.111 122.696 124.503 122.08 123.731C121.474 122.959 121.017 122.073 120.709 121.074C120.411 120.065 120.262 118.999 120.262 117.876V117.228C120.262 116.105 120.411 115.044 120.709 114.045C121.017 113.036 121.474 112.145 122.08 111.373C122.696 110.601 123.466 109.993 124.391 109.55C125.325 109.107 126.419 108.886 127.672 108.886C128.976 108.886 130.116 109.154 131.092 109.689C132.067 110.214 132.832 110.935 133.387 111.852C133.952 112.758 134.26 113.788 134.311 114.941H131.6C131.549 114.251 131.353 113.628 131.015 113.072C130.686 112.516 130.234 112.073 129.659 111.744C129.094 111.404 128.432 111.234 127.672 111.234C126.799 111.234 126.065 111.409 125.469 111.759C124.884 112.099 124.416 112.562 124.067 113.149C123.728 113.726 123.482 114.37 123.328 115.08C123.184 115.781 123.112 116.496 123.112 117.228V117.876C123.112 118.608 123.184 119.328 123.328 120.039C123.471 120.75 123.713 121.393 124.052 121.97C124.401 122.547 124.868 123.01 125.454 123.36C126.049 123.7 126.789 123.87 127.672 123.87Z" fill="#996DFF"/>
<path d="M140.38 102.182V125.909H137.515V102.182H140.38ZM150.563 109.195L143.292 116.996L139.225 121.229L138.994 118.185L141.905 114.694L147.081 109.195H150.563ZM147.959 125.909L142.013 117.938L143.492 115.389L151.318 125.909H147.959Z" fill="#996DFF"/>
<path d="M160.114 126.218C158.953 126.218 157.901 126.022 156.956 125.631C156.021 125.229 155.215 124.668 154.537 123.947C153.87 123.226 153.356 122.372 152.997 121.383C152.637 120.394 152.458 119.313 152.458 118.139V117.49C152.458 116.131 152.658 114.921 153.058 113.86C153.459 112.789 154.003 111.883 154.691 111.141C155.379 110.4 156.16 109.839 157.033 109.458C157.906 109.076 158.809 108.886 159.744 108.886C160.935 108.886 161.962 109.092 162.825 109.504C163.698 109.916 164.411 110.492 164.966 111.234C165.521 111.965 165.931 112.83 166.198 113.829C166.465 114.818 166.599 115.899 166.599 117.073V118.355H154.152V116.023H163.749V115.806C163.708 115.065 163.554 114.344 163.287 113.644C163.03 112.943 162.619 112.367 162.055 111.914C161.49 111.461 160.72 111.234 159.744 111.234C159.097 111.234 158.501 111.373 157.957 111.651C157.413 111.919 156.945 112.32 156.555 112.856C156.165 113.391 155.862 114.045 155.646 114.818C155.431 115.59 155.323 116.481 155.323 117.49V118.139C155.323 118.932 155.431 119.679 155.646 120.379C155.872 121.069 156.196 121.676 156.617 122.202C157.048 122.727 157.567 123.139 158.173 123.437C158.789 123.736 159.487 123.885 160.268 123.885C161.274 123.885 162.126 123.679 162.825 123.268C163.523 122.856 164.134 122.305 164.658 121.615L166.383 122.989C166.024 123.535 165.567 124.055 165.012 124.55C164.458 125.044 163.775 125.446 162.963 125.755C162.162 126.064 161.212 126.218 160.114 126.218Z" fill="#996DFF"/>
<path d="M176.904 109.195V111.389H167.893V109.195H176.904ZM170.943 105.132H173.793V121.769C173.793 122.336 173.88 122.763 174.055 123.051C174.229 123.34 174.455 123.53 174.732 123.623C175.01 123.716 175.308 123.762 175.626 123.762C175.862 123.762 176.109 123.741 176.365 123.7C176.632 123.649 176.833 123.607 176.966 123.577L176.982 125.909C176.756 125.981 176.458 126.048 176.088 126.11C175.729 126.182 175.292 126.218 174.779 126.218C174.08 126.218 173.438 126.079 172.853 125.801C172.268 125.523 171.8 125.06 171.451 124.411C171.112 123.752 170.943 122.866 170.943 121.754V105.132Z" fill="#996DFF"/>
<path d="M195.924 113.088V115.513H183.785V113.088H195.924ZM184.247 103.418V125.909H181.274V103.418H184.247ZM198.512 103.418V125.909H195.554V103.418H198.512Z" fill="#00B37E"/>
<path d="M210.281 126.218C209.12 126.218 208.068 126.022 207.123 125.631C206.188 125.229 205.382 124.668 204.704 123.947C204.037 123.226 203.523 122.372 203.164 121.383C202.805 120.394 202.625 119.313 202.625 118.139V117.49C202.625 116.131 202.825 114.921 203.226 113.86C203.626 112.789 204.17 111.883 204.858 111.141C205.547 110.4 206.327 109.839 207.2 109.458C208.073 109.076 208.977 108.886 209.911 108.886C211.102 108.886 212.129 109.092 212.992 109.504C213.865 109.916 214.579 110.492 215.133 111.234C215.688 111.965 216.099 112.83 216.366 113.829C216.633 114.818 216.766 115.899 216.766 117.073V118.355H204.319V116.023H213.916V115.806C213.875 115.065 213.721 114.344 213.454 113.644C213.197 112.943 212.787 112.367 212.222 111.914C211.657 111.461 210.887 111.234 209.911 111.234C209.264 111.234 208.668 111.373 208.124 111.651C207.58 111.919 207.113 112.32 206.722 112.856C206.332 113.391 206.029 114.045 205.814 114.818C205.598 115.59 205.49 116.481 205.49 117.49V118.139C205.49 118.932 205.598 119.679 205.814 120.379C206.039 121.069 206.363 121.676 206.784 122.202C207.215 122.727 207.734 123.139 208.34 123.437C208.956 123.736 209.654 123.885 210.435 123.885C211.441 123.885 212.294 123.679 212.992 123.268C213.69 122.856 214.301 122.305 214.825 121.615L216.55 122.989C216.191 123.535 215.734 124.055 215.179 124.55C214.625 125.044 213.942 125.446 213.131 125.755C212.33 126.064 211.38 126.218 210.281 126.218Z" fill="#00B37E"/>
<path d="M223.19 102.182V125.909H220.325V102.182H223.19Z" fill="#00B37E"/>
<path d="M230.615 112.408V132.335H227.75V109.195H230.368L230.615 112.408ZM241.845 117.413V117.737C241.845 118.953 241.701 120.08 241.413 121.12C241.126 122.15 240.705 123.046 240.15 123.808C239.606 124.57 238.933 125.162 238.132 125.585C237.331 126.007 236.412 126.218 235.375 126.218C234.317 126.218 233.382 126.043 232.571 125.693C231.76 125.343 231.072 124.833 230.507 124.163C229.942 123.494 229.49 122.691 229.151 121.754C228.823 120.817 228.597 119.761 228.474 118.587V116.857C228.597 115.621 228.828 114.514 229.167 113.536C229.506 112.557 229.952 111.723 230.507 111.033C231.072 110.333 231.755 109.803 232.556 109.442C233.357 109.071 234.281 108.886 235.329 108.886C236.376 108.886 237.305 109.092 238.117 109.504C238.928 109.905 239.611 110.482 240.166 111.234C240.72 111.986 241.136 112.887 241.413 113.937C241.701 114.977 241.845 116.136 241.845 117.413ZM238.979 117.737V117.413C238.979 116.579 238.892 115.796 238.717 115.065C238.543 114.323 238.271 113.675 237.901 113.119C237.542 112.552 237.079 112.109 236.515 111.79C235.95 111.461 235.277 111.296 234.497 111.296C233.778 111.296 233.151 111.419 232.617 111.667C232.094 111.914 231.647 112.248 231.277 112.671C230.907 113.083 230.604 113.556 230.368 114.092C230.142 114.617 229.973 115.163 229.86 115.729V119.73C230.065 120.451 230.353 121.131 230.723 121.769C231.092 122.397 231.585 122.907 232.201 123.298C232.818 123.679 233.593 123.87 234.527 123.87C235.298 123.87 235.96 123.71 236.515 123.391C237.079 123.062 237.542 122.614 237.901 122.047C238.271 121.481 238.543 120.832 238.717 120.101C238.892 119.359 238.979 118.572 238.979 117.737Z" fill="#00B37E"/>
</svg>
