<svg width="326" height="183" viewBox="0 0 326 183" fill="none" xmlns="http://www.w3.org/2000/svg">
<rect width="326" height="183" fill="#253B55"/>
<path d="M162.984 124.954C161.935 124.954 160.869 124.672 159.945 124.139L150.278 118.421C148.837 117.606 149.542 117.324 150.012 117.167C151.939 116.494 152.331 116.353 154.383 115.177C154.603 115.052 154.885 115.099 155.104 115.24L162.53 119.643C162.796 119.799 163.172 119.799 163.423 119.643L192.36 102.942C192.626 102.785 192.799 102.472 192.799 102.158V68.7563C192.799 68.4273 192.626 68.1296 192.344 67.9573L163.423 51.2719C163.157 51.1153 162.796 51.1153 162.53 51.2719L133.624 67.9729C133.342 68.1296 133.17 68.4429 133.17 68.7719V102.158C133.17 102.472 133.342 102.785 133.624 102.926L141.552 107.501C145.86 109.647 148.492 107.125 148.492 104.571V71.6077C148.492 71.1376 148.868 70.7773 149.338 70.7773H153.004C153.459 70.7773 153.85 71.1376 153.85 71.6077V104.587C153.85 110.321 150.717 113.611 145.281 113.611C143.604 113.611 142.288 113.611 138.622 111.793L131.039 107.422C129.159 106.341 128 104.32 128 102.143V68.7563C128 66.5942 129.159 64.5575 131.039 63.4765L159.945 46.7755C161.778 45.7415 164.206 45.7415 166.024 46.7755L194.961 63.4922C196.841 64.5732 198 66.5942 198 68.7719V102.158C198 104.32 196.841 106.341 194.961 107.438L166.024 124.139C165.099 124.672 164.05 124.954 162.984 124.954ZM186.344 92.0374C186.344 85.7863 182.114 84.1256 173.231 82.9505C164.238 81.7598 163.329 81.1488 163.329 79.0495C163.329 77.3104 164.097 74.9917 170.755 74.9917C176.693 74.9917 178.886 76.2764 179.795 80.2872C179.873 80.6632 180.218 80.9452 180.61 80.9452H184.37C184.605 80.9452 184.824 80.8512 184.981 80.6788C185.137 80.5065 185.216 80.2715 185.2 80.0365C184.62 73.1274 180.03 69.9156 170.755 69.9156C162.499 69.9156 157.579 73.3937 157.579 79.2375C157.579 85.5669 162.483 87.3216 170.395 88.105C179.873 89.0293 180.61 90.4237 180.61 92.288C180.61 95.5154 178.009 96.8941 171.914 96.8941C164.253 96.8941 162.577 94.9671 162.013 91.16C161.95 90.7527 161.606 90.455 161.183 90.455H157.438C156.968 90.455 156.608 90.831 156.608 91.2854C156.608 96.1578 159.256 101.97 171.93 101.97C181.08 101.955 186.344 98.3355 186.344 92.0374Z" fill="#43853D"/>
</svg>
